<?xml version="1.0" encoding="UTF-8"?>
<svg id="Layer_1" data-name="Layer 1" xmlns="http://www.w3.org/2000/svg" viewBox="0 0 600 600">
  <path d="M394.86,245.13c1.83,6,14.31,21.41,14.22,26.39-.04,1.98-2.07,5.1-3.07,6.99-1.2,2.27-9.6,16.97-10.41,17.59-2.29,1.76-5.4.14-7.59,1.41s-6.21,13.35-7.65,13.58l-57.35-12.07c-.35.26,2.31,2.93,2.6,3.96.95,3.39-11.06,20.79-13.31,25.05l-28.33-.48c-1.64-6.35-11.41-17.15-12.55-22.52-.6-2.81,1.75-3.5,1.58-6l-56.95,11.96-6.2-13.81-8.36-1.15-13.34-23.74,14.44-27.35c2.8.71,5.57,1.71,8.27,2.71,23.18,8.57,50.09,24.47,72.98,31.02,8.54,2.44,19.14,1.51,27.98.67l83.03-34.2ZM277.86,292.87c.37-3.12,5.07-8.97,2.13-11.37l-73.93-31.08c-1.04-.34-1.52.32-2.07,1.02-3.92,5.01-6.14,13.93-11.02,18.24-.72,3.96,10.28,19,12.73,23.34l72.16-.15ZM398.56,282.58c1.08-1.86,6.16-10.51,5.98-11.64l-11.61-20.92-76.92,33.41c.98,2.73,2.64,9.03,5.47,9.59l71.38-.17c.57-3.89,3.87-7.1,5.7-10.27ZM256,297h-41c.45,2.11,2.46,8.28,4.45,8.61,11.18-2.45,22.66-4.17,33.78-6.89,1.01-.25,3-.3,2.77-1.72ZM381.5,297h-40.5l11.75,3.75,25.68,5.31,4.08-7.08-1.01-1.98Z"/>
  <path d="M272.7,192.31c2.08,1.76,1.7,5.07,2.57,6.41.99,1.51,9.47,5.6,11.59,8.91,2.83,4.4,2.9,13.29,4.59,18.41l13.4.82c.47-1.33,1.04-2.69,1.43-4.05,1.14-3.96,1.68-12.21,3.64-15.37,1.49-2.41,10.27-6.7,11.78-8.72,1.81-2.42-.35-6.4,5.27-7.33,2.36-.39,3.62.89,4.01,3.16,1.31,7.51-4.81,5.06-8.95,7-.71.33-9.54,7.6-9.83,8.17-.77,1.55-3.88,16.68-3.22,17.28.33.31,6.4-.45,5.99,5-19.3-2.05-6.78,24.36,3.71,12.72,1.14-1.27.56-3.74,2.28-3.71l4.77,9.67c.12,2.65-4.86,7.29-5.67,10.92-.35,1.58-.11,1.56,1.42,1.42l23.07-6.94,2.42-22.07.54,24.02c-1.57,2.32-28.02,9.93-33.46,13.54-.87.58-1.23,2.39-2.08,2.92-1.5.94-29.25,2.6-29.82-3.44l-33.73-13.01c-.41-8.95,2.73-18.69-1.44-27.04,6.75,3.02,2.3,22.08,4.12,24.87,7.86,2.02,15.68,5.1,23.58,6.94,6.08,1.42-2.73-8.55-3.2-9.86-1.83-5.15,3.05-7.2,4.48-11.46l4.46,4.57c13.98,5.77,16.01-16.95,1.56-14.06.87-5.32,3.29-4.17,6.97-6.48-2.84-4.26-1.96-12.41-4.53-16.45-.35-.55-9.38-7.62-10.19-8.09-3.07-1.76-7.45,1.19-9.04-4.73-.66-2.47,3.91-6.96,7.49-3.92Z"/>
  <polygon points="312.8 334.21 325.96 358.51 313.1 381.35 283.97 381.53 271.05 358.51 284.16 334.16 312.8 334.21"/>
  <path d="M174,443v21.5c0,6.91,9.05,7.51,14.28,6.46,2.13-.43,5.66-9.32,7.83-11.35,8.02-7.55,19.05,1.68,16.89,11.39h14c-3.39-4.18-3.22-8.87-3-14h19.5c3.59,0,.18,12.2-2.5,14h19v-14h6.01c-1.6,3.11,2.53,14,5.49,14h14.5v-28h6v34c-8.53-.8-18.12,2.34-25.49-3.01l-1.05,3.08-64-.03-6.06-4.1c-2.85-.27-5.03,3.47-7.95,4.01-22.52,4.19-19.49-19.01-19.45-33.95h6ZM207,471c2.15-10.05-10.68-11.71-7.56-.94l7.56.94ZM238.99,463.01l-9.99.49c3.74,7.36,7.13,7.82,9.99-.49Z"/>
  <path d="M346,443h6c-1.34,8.56-3.28,21.36,3.5,28h33.5c-.89-10.4-12.5-7.75-20.01-7.99v-6.01c13.75-1.95,28.66,3.76,26.01,20.01h-39.5c-.26,0-2.57-3.01-4.49-1.99,2.78,18.54-23.3,25.81-30.5,7.99-4.4-10.88,3.98-22.25,15.49-21.99l-1.07,5.93c-15.62,1.46-12.12,23.62,4.33,19.79,3.15-.73,6.74-6.39,6.74-9.23v-34.5Z"/>
  <path d="M334.3,314.7c1.96,2.11,10.66,4.76,12.17,7.33l9.2,37.74,8.32,4.24c.16,1.96-1.97.74-2.99.49-.91-.22-5.82-1.85-6.1-2.15l-12.45-36.31-5.45-3.04c1.32,6.88.25,13.5-.9,20.36l6.76,6.31-1.95,31.86,3.08,3.46-5.06-1.61c-.17-4.51.06-34.51-4.44-34.36l-4.5,5.49c-2.41-5.54-12.64-17.78-12.98-23.09-.3-4.53,10.88-18.82,12.98-23.94l4.31,7.21Z"/>
  <path d="M266.01,355l-2.54-4.99-3.27,2.7-1.21,31.3-3-.02c2.47-11.12-.36-23.02-.76-34.37l5.87-6.11c-.13-3.78-2.12-7.23-2.19-11.02-.03-1.94,2.65-10.35-.4-9.48l-4.74,4.26-11.67,35.12-7.12,1.1,5.78-2.73,9.77-38.73c1.76-3.02,9.26-4.76,11.73-6.99,1.68-1.52,2.74-7.68,5.21-7.05l13.36,23.32-14.84,23.68Z"/>
  <path d="M409,443v21.5c0,1.13,3.59,6.5,4.5,6.5h15.5v-14l5.56.94c.19,5.42.33,12.16,6.88,13.11,2.08.3,6.61.24,8.53-.57,6.28-2.63,4.22-17.12,17.75-12.7,8.45,2.76,5.94,12.19,6.27,19.23-4-.25-8.33.48-12.27-.24-3.17-.58-5.04-3.83-6.24-3.8-5.74,5.06-13.69,5.84-20,1.06l-.49,2.97c-8.79-.88-23.34,3.17-29.01-5.48-.68-1.04-2.99-7.25-2.99-8.01v-20.5h6ZM468,471l-.44-7.07c-6.53-3.38-9.17.81-6.42,6.92l6.85.15Z"/>
  <path d="M160,457v23.5c0,4.73-7.94,11.7-12.56,12.43-23.28,3.68-26.85-30.72-3.44-31.94l-.04,5.97c-17.24.74-10.15,25.88,5.02,19.52,8.11-3.4,3.85-22.03,6.09-29.41l4.93-.07Z"/>
  <path d="M164.56,125.45c2.06,1.04,11.72,7.19,12.96,8.53s1.83,1.98,1.47,4.02c-2.22,2.21-16.44-11.05-20.53-10.98-2.33.04-6.66,7.02-7.53,9.42,5.98,4.03,12.36,7.68,18.17,11.98,1.12.83,2.49-.01,1.89,2.57-3.21,3.69-18.24-10.38-22.39-10.92l-6.59,10.44c-.28,1.05,17.59,9.98,18.51,11.47,1.09,1.78.51,2.86-1.01,4l-22.49-14.47,16.26-26.23c5-3.4,6.58-2.2,11.29.18Z"/>
  <path d="M448.98,163c-3.89.96-6.2,4.47-10.52,4.98-2.62.31-1.6-2.36-.55-3.57,2.99-3.43,17.47-8.51,21.6-12.37,3.34,5.53,15.12,19.04,6.04,24.01-2.52,1.38-4.86.46-6.56,1.44s-5.86,8.13-10.51,8.48l-1.53-2.5c.04-2.75,5.54-4.06,7.58-5.44,2.68-3.86-4.63-11.14-5.56-15.04ZM452.07,160.08c-1.1,1.52,5.62,13.72,8.23,13.72,10.78-.03-.36-17.06-2.61-16.67l-5.62,2.95Z"/>
  <path d="M200.73,107.24c3.18-.54,7.4-.96,9.33,2.2.72,1.18,5.07,16.99,4.96,18.03-.61,5.98-18.46,10.9-22.99,7-2.34-2.02-5.65-16.74-5.01-19.95.78-3.92,10.04-6.66,13.72-7.29ZM206.9,111.11c-5.33-.7-10.73.27-15.44,2.85-2.17,3.24,2.13,15.14,3.69,18.89l15.67-4.03-3.92-17.7Z"/>
  <path d="M493.04,216.97c-3.83-7.08-6.12-19.37-16.04-12.96l9,16.98-3.54.13-7.58-14.01c-16.06,2.64.95,14.52.12,21.38l-2.51.53c-2-5.8-12.1-16.64-6.77-22.07.6-.61,12.47-7.76,13.55-8.18,10.35-4.02,12.06,11.15,17.7,16.72l-3.94,1.47Z"/>
  <path d="M125.23,184.79c.33.57,4.46,2.72,5.66,2.1,1.45-2.05,7.92-16.82,11.11-13.89l-8.89,15.5,7.27,4.35c2.05-.39,9.29-12.92,9.64-15.86,3.56.18,3.29,2.01,2.06,4.57-2.18,4.54-7.34,14.29-12.6,14.49-2.69.11-18.08-8.3-18.49-9.77-2.26-8.05,7.29-13.59,8.02-21.3l3.8,2.49c-2.36,3.56-9.87,13.29-7.58,17.3Z"/>
  <path d="M289,107v3h-16.5c-2.44,0-2.97,6.98-2.5,9h18v3h-18c-.47,2.02.06,9,2.5,9h16.5v3h-18.5c-6.16,0-5.55-21.79-3.2-24.71.12-.15,3-2.29,3.2-2.29h18.5Z"/>
  <path d="M253,134h-4v-21.5c-4.4-3.82-10.69-2.19-16-2.5v24h-4v-27h19.5c.32,0,4.5,4.18,4.5,4.5v22.5Z"/>
  <path d="M514.99,248.99c-7.57-.06-6.73-15.95-14.94-13.42-8.71,2.68,5.5,11.96,2.78,19.77-.5,1.44-7.62,5.66-9.15,5.45-4.58-.66-9.74-13.5-12.68-17.26l3.03-1.05,8.98,14.1c17.29-2.7-5.35-14.05,3.08-23s16.68,8.57,18.91,15.41Z"/>
  <path d="M133,215c-1.55.44-1.93-.18-2.91-.74-3.24-1.88-13.77-9.09-16.68-9.26-4.47-.26-7.27,8.37-9.29,11.7l.31,1.31,19.5,11.12-.95,3.88-24.04-13.55c1.96-4.08,8.34-17.76,12.61-18.46,3.37-.56,18.68,8.04,21.45,10.57,1.54,1.4-.21,1.81-.02,3.45Z"/>
  <path d="M391.5,107c6.8,1.54,5.18,15,0,15h-15.5v13.01s-3,0-3,0v-28c5.3.8,13.66-1.09,18.5,0ZM376,119h14.5c2.33-1.86,1.57-5.28,1.38-7.89l-15.89-1.11v9.01Z"/>
  <path d="M346.96,107.05l9.04,26.94c-5.78,1.08-4.16-6.68-6.46-9.03-1.75-1.79-8.06-1.12-10.55-.48-2.8,1.67-1.09,10.82-6.98,9.51l9.04-26.95h5.91ZM347,120.99c.59-.56-2.08-8.61-3.99-8.99l-2.01,8.99h6Z"/>
  <path d="M446.87,130.13c.53.34,1.48,3.84.68,4.84-5.43,4.88-9.17,11.81-14.03,17.05-.72.77-3.62,4.04-4.51,2.98-1.95-2.32,4.75-7.81,5.55-10.05l-3.7-8.78c-2.93-1.84-12.26,4.37-12.85-2.15l28.86-3.88ZM443,134.01l-8.99,1.48c1.34,2.08,1.65,5.78,4.97,5.5l4.02-6.98Z"/>
  <path d="M115.01,245l-.64,3.08-12.22-.93-3.96,8.55c0,2.76,5.61,5.95,6.24,8.28.29,1.1-.26,3.85-1.91,3.02-1.05-.53-13.63-16.18-14.91-18.09-1.9-2.84-4.59-5.15-.15-7.49l27.55,3.59ZM99,246.01l-8.98.5,5.97,6.49,3.01-6.99Z"/>
  <path d="M311,386l-12.5,15.98c-.78,0-8.64-10.59-9.78-12.26-.82-1.21-2-2.11-1.72-3.72h24Z"/>
  <path d="M306,443v34h-6c1.15-8.03,1.31-16.37,1.05-24.55-.2-6.24-4.58-10.92,4.95-9.45Z"/>
  <path d="M474.58,188.56c1.05-.57,2.35-2.83,4.87-2.53l1.55,2.45c-.26,1.22-18.92,11.94-21.29,12.73-1.91.64-2.15,1.4-3.7-.73-.37-1.89,1.95-2.25,2.98-3,4.77-3.46,10.43-6.09,15.59-8.93Z"/>
  <polygon points="415 108.01 409.02 134.33 406.01 135 411.11 108.11 415 108.01"/>
  <path d="M435,448.99c-6.76,1.73-9.09-6.14-1.96-5.59l1.96,5.59Z"/>
  <path d="M150,454.99l-4.85-.12c-1.19-2.03-.76-3.75-.13-5.87,3.85-.85,4.58,3.11,4.98,5.99Z"/>
  <path d="M265.99,448.99l-4.56-.92c-1.81-7.91,5.52-5.41,4.56.92Z"/>
  <polygon points="381.5 297 382.51 298.98 378.43 306.07 352.75 300.75 341 297 381.5 297"/>
  <path d="M256,297c.23,1.42-1.76,1.47-2.77,1.72-11.11,2.72-22.6,4.44-33.78,6.89-1.99-.33-4-6.5-4.45-8.61h41Z"/>
</svg>